<svg width="24" height="25" viewBox="0 0 24 25" fill="none" xmlns="http://www.w3.org/2000/svg">
<g clip-path="url(#clip0_2154_2771)">
<path d="M14.6768 23.157C16.8271 23.157 18.5702 21.4138 18.5702 19.2636V16.2855C18.5702 15.3555 18.7225 14.4321 19.0211 13.5513L19.3882 12.4699C19.6868 11.59 19.8391 10.6675 19.8396 9.73846L19.841 6.40424C19.841 6.19002 19.9216 5.9833 20.0669 5.8258C20.1236 5.76393 20.1682 5.69221 20.1982 5.61533C20.2282 5.53846 20.2441 5.45596 20.2441 5.37158V4.8958C20.2441 4.28502 19.7486 3.78955 19.1374 3.78955H19.1238C18.513 3.78955 18.0175 4.28502 18.0175 4.8958V4.16643C18.0175 3.57393 17.5371 3.09299 16.9441 3.09299H16.9164C16.3 3.09299 15.8046 3.58893 15.8046 4.20018V3.68268C15.8046 3.06341 15.3026 2.56143 14.6833 2.56143H14.6543C14.0102 2.56143 13.4927 3.07939 13.4927 3.71783V3.42111C13.4927 2.79721 12.9869 2.29189 12.3635 2.29189C12.0518 2.29189 11.7691 2.41846 11.5647 2.62236C11.3604 2.82674 11.2338 3.10939 11.2338 3.42111V3.14033C11.2338 2.19814 10.4702 1.43408 9.52754 1.43408C8.59801 1.43408 7.82129 2.21033 7.82129 3.14033V3.53221C7.82129 3.95221 7.97645 4.35674 8.25676 4.66939C8.39738 4.82549 8.50613 5.00502 8.5802 5.19768C8.65379 5.39033 8.6927 5.59658 8.6927 5.80611V6.94377C8.6927 8.16205 8.97723 9.36346 9.52426 10.4524L9.95176 11.3036C10.4904 12.3771 10.7754 13.5597 10.7829 14.7602L12.2886 13.7117C12.8385 13.3808 13.551 13.5416 13.9053 14.0759C14.2492 14.5941 14.1287 15.3133 13.6344 15.6908L10.7833 17.8333V19.2636C10.7833 21.4138 12.5265 23.157 14.6768 23.157Z" stroke="#707070" stroke-miterlimit="10" stroke-linecap="round" stroke-linejoin="round"/>
<path d="M11.2339 4.22236V3.40088" stroke="#707070" stroke-miterlimit="10" stroke-linecap="round" stroke-linejoin="round"/>
<path d="M13.4929 4.22237V3.42334" stroke="#707070" stroke-miterlimit="10" stroke-linecap="round" stroke-linejoin="round"/>
<path d="M15.8044 4.49342V3.92773" stroke="#707070" stroke-miterlimit="10" stroke-linecap="round" stroke-linejoin="round"/>
<path d="M18.0164 4.75363V4.56543" stroke="#707070" stroke-miterlimit="10" stroke-linecap="round" stroke-linejoin="round"/>
<path d="M11.2339 3.40088V3.42057V4.2226" stroke="#707070" stroke-miterlimit="10" stroke-linecap="round" stroke-linejoin="round"/>
<path d="M13.4927 3.42334V3.44725V4.22256" stroke="#707070" stroke-miterlimit="10" stroke-linecap="round" stroke-linejoin="round"/>
<path d="M15.8047 3.92773V3.94039V4.49352" stroke="#707070" stroke-miterlimit="10" stroke-linecap="round" stroke-linejoin="round"/>
<path d="M18.0164 4.75363V4.56543" stroke="#707070" stroke-miterlimit="10" stroke-linecap="round" stroke-linejoin="round"/>
<path d="M8.98717 24.4977V20.4369C8.99421 19.8477 9.18405 19.0429 9.66311 18.6772L13.6345 15.6919C14.1287 15.3145 14.2493 14.5952 13.9054 14.0771C13.5511 13.5427 12.8386 13.3819 12.2887 13.7128L10.6648 14.8394C10.0381 15.2172 9.19994 15.0278 8.79588 14.4184C8.62853 14.1663 8.60978 13.8822 8.62853 13.562L8.71342 12.3407L10.0789 11.571C10.0386 11.4814 9.99592 11.3929 9.95186 11.3047L9.52436 10.4535C9.27827 9.96457 9.08608 9.4527 8.94827 8.92676L7.21061 9.81504C6.61483 10.123 6.19108 10.6846 6.05796 11.3422L5.9231 12.5258" stroke="#707070" stroke-miterlimit="10" stroke-linecap="round" stroke-linejoin="round"/>
<path d="M5.92969 12.4966L5.27508 18.2121L3.75586 24.4966" stroke="#707070" stroke-miterlimit="10" stroke-linecap="round" stroke-linejoin="round"/>
<path d="M14.1421 11.8462C14.1421 11.8462 15.3011 12.2939 15.6427 13.4919" stroke="#707070" stroke-miterlimit="10" stroke-linecap="round" stroke-linejoin="round"/>
<path d="M12.1545 10.6674H13.061C13.5212 10.6674 13.9634 10.4881 14.2938 10.1676C14.6374 9.83416 14.8313 9.37577 14.8313 8.89694V7.91406" stroke="#707070" stroke-miterlimit="10" stroke-linecap="round" stroke-linejoin="round"/>
</g>
<defs>
<clipPath id="clip0_2154_2771">
<rect width="24" height="24" fill="white" transform="translate(0 0.965332)"/>
</clipPath>
</defs>
</svg>
