<svg width="20" height="20" viewBox="0 0 20 20" fill="none" xmlns="http://www.w3.org/2000/svg">
<g clip-path="url(#clip0_2180_6694)">
<path d="M2.5 10C2.5 10.9849 2.69399 11.9602 3.0709 12.8701C3.44781 13.7801 4.00026 14.6069 4.6967 15.3033C5.39314 15.9997 6.21993 16.5522 7.12987 16.9291C8.03982 17.306 9.01509 17.5 10 17.5C10.9849 17.5 11.9602 17.306 12.8701 16.9291C13.7801 16.5522 14.6069 15.9997 15.3033 15.3033C15.9997 14.6069 16.5522 13.7801 16.9291 12.8701C17.306 11.9602 17.5 10.9849 17.5 10C17.5 9.01509 17.306 8.03982 16.9291 7.12987C16.5522 6.21993 15.9997 5.39314 15.3033 4.6967C14.6069 4.00026 13.7801 3.44781 12.8701 3.0709C11.9602 2.69399 10.9849 2.5 10 2.5C9.01509 2.5 8.03982 2.69399 7.12987 3.0709C6.21993 3.44781 5.39314 4.00026 4.6967 4.6967C4.00026 5.39314 3.44781 6.21993 3.0709 7.12987C2.69399 8.03982 2.5 9.01509 2.5 10Z" stroke="#898989" stroke-linecap="round" stroke-linejoin="round"/>
<path d="M12.5 6.66675H7.5H8.33333C8.99637 6.66675 9.63226 6.93014 10.1011 7.39898C10.5699 7.86782 10.8333 8.50371 10.8333 9.16675C10.8333 9.82979 10.5699 10.4657 10.1011 10.9345C9.63226 11.4034 8.99637 11.6667 8.33333 11.6667H7.5L10.8333 14.1667" stroke="#898989" stroke-linecap="round" stroke-linejoin="round"/>
<path d="M7.5 9.16675H12.5" stroke="#898989" stroke-linecap="round" stroke-linejoin="round"/>
</g>
<defs>
<clipPath id="clip0_2180_6694">
<rect width="20" height="20" fill="white"/>
</clipPath>
</defs>
</svg>
