<svg width="117" height="29" viewBox="0 0 117 29" fill="none" xmlns="http://www.w3.org/2000/svg">
<g clip-path="url(#clip0_2175_5727)">
<path d="M0 28.0627V0H5.36355V9.39384C5.4924 9.18721 5.71294 8.95461 6.02392 8.69541C6.28287 8.43682 6.69731 8.13926 7.26786 7.80273C8.48578 7.10368 9.85919 6.75478 11.3875 6.75478C14.2898 6.75478 16.6209 7.75077 18.384 9.74336C20.1452 11.736 21.0267 14.2977 21.0267 17.4286C21.0267 20.5594 20.0938 23.0822 18.2285 25.0741C16.388 27.0674 14.0048 28.0627 11.0771 28.0627C9.57484 28.0627 8.20081 27.7132 6.95749 27.0154C6.38694 26.6535 5.98613 26.3683 5.75259 26.1617C5.64913 26.0837 5.50603 25.9545 5.32514 25.7738C5.19566 25.6439 5.1046 25.5406 5.05318 25.4626V28.0634H0V28.0627ZM6.60748 22.1239C7.59185 23.2628 8.86181 23.8319 10.4161 23.8319C11.9704 23.8319 13.1623 23.3012 14.1473 22.2402C15.1317 21.1805 15.6242 19.7564 15.6242 17.9711C15.6242 16.1857 15.1441 14.7759 14.1863 13.663C13.2274 12.5507 11.971 11.9939 10.4167 11.9939C8.86243 11.9939 7.65752 12.5117 6.72457 13.5467C5.71356 14.633 5.20867 16.1084 5.20867 17.9711C5.20867 19.6271 5.67515 21.0116 6.6081 22.1233L6.60748 22.1239Z" fill="#26B43D"/>
<path d="M35.0473 7.76074V13.1941C31.3936 13.1941 29.5673 15.3674 29.5673 19.7145V28.0634H24.2038V7.76074H29.4509V11.2145C30.4613 8.91201 32.3272 7.76074 35.048 7.76074H35.0473Z" fill="#26B43D"/>
<path d="M37.8329 3.06591C37.8329 2.21283 38.1309 1.4878 38.7274 0.892677C39.3228 0.298178 40.0612 0 40.9427 0C41.8243 0 42.6005 0.298178 43.197 0.892677C43.793 1.48841 44.0916 2.21283 44.0916 3.06591C44.0916 3.919 43.793 4.64464 43.197 5.23914C42.6005 5.83488 41.8497 6.13244 40.9427 6.13244C40.0358 6.13244 39.3228 5.83488 38.7274 5.23914C38.1309 4.64403 37.8329 3.91961 37.8329 3.06591ZM38.2994 28.0627V7.76376H43.6629V28.0621H38.2994V28.0627Z" fill="#26B43D"/>
<path d="M48.0049 28.0615V0H53.3685V16.302L59.8973 7.76252H65.9218L58.7704 16.9609L66.4664 28.0609H60.1699L53.3685 17.582V28.0609H48.0049V28.0615Z" fill="#26B43D"/>
<path d="M68.7889 28.0615V0H74.1525V16.302L80.6819 7.76252H86.7065L79.5551 16.9615L87.251 28.0615H80.9545L74.1531 17.5826V28.0615H68.7896H68.7889Z" fill="#26B43D"/>
<path d="M89.1044 3.06591C89.1044 2.21283 89.4024 1.4878 89.999 0.892677C90.5943 0.298178 91.3327 0 92.2143 0C93.0958 0 93.872 0.298178 94.468 0.892677C95.0639 1.48841 95.3619 2.21283 95.3619 3.06591C95.3619 3.919 95.0639 4.64464 94.468 5.23914C93.872 5.83488 93.1212 6.13244 92.2143 6.13244C91.3073 6.13244 90.5943 5.83488 89.999 5.23914C89.4024 4.64403 89.1044 3.91961 89.1044 3.06591ZM89.5709 28.0627V7.76376H94.9338V28.0621H89.5709V28.0627Z" fill="#26B43D"/>
<path d="M115.639 10.6674C116.547 12.1935 117 14.2511 117 16.8382V28.0588H111.636V16.2171C111.636 15.1561 111.299 14.2634 110.626 13.539C109.978 12.8926 109.187 12.5684 108.255 12.5684C107.141 12.5684 106.259 12.9309 105.612 13.6553C104.964 14.3284 104.64 15.2341 104.64 16.3717V28.0582H99.2767V7.75672H104.524V10.6284C105.041 9.82664 105.729 9.16719 106.583 8.64878C107.645 8.05366 108.772 7.7561 109.965 7.7561C112.582 7.7561 114.473 8.72611 115.639 10.6674Z" fill="#26B43D"/>
</g>
<defs>
<clipPath id="clip0_2175_5727">
<rect width="117" height="28.0627" fill="white"/>
</clipPath>
</defs>
</svg>
