<svg width="512" height="512" viewBox="0 0 512 512" fill="none" xmlns="http://www.w3.org/2000/svg">
<g clip-path="url(#clip0_262_905)">
<path d="M179.809 401.408L103.424 443.074C98.9416 445.518 94.9133 448.522 91.165 451.797C135.699 489.347 193.188 512 256 512C318.348 512 375.47 489.685 419.879 452.647C415.783 449.189 411.339 446.078 406.412 443.624L324.618 402.732C314.049 397.448 307.374 386.647 307.374 374.833V342.741C309.673 340.123 312.301 336.761 315.112 332.791C326.26 317.044 334.693 299.723 340.538 281.552C351.029 278.316 358.757 268.626 358.757 257.111V222.856C358.757 215.32 355.405 208.587 350.198 203.873V154.354C350.198 154.354 360.371 77.293 256.01 77.293C151.649 77.293 161.821 154.354 161.821 154.354V203.873C156.604 208.587 153.262 215.32 153.262 222.856V257.111C153.262 266.134 158.005 274.075 165.106 278.664C173.665 315.924 196.077 342.741 196.077 342.741V374.04C196.067 385.44 189.826 395.941 179.809 401.408Z" fill="white"/>
<path d="M260.376 0.0381214C119.015 -2.37697 2.45324 110.263 0.0381466 251.623C-1.33363 331.775 34.3904 403.813 91.2707 451.719C94.99 448.473 98.9797 445.497 103.414 443.082L179.798 401.417C189.816 395.949 196.057 385.449 196.057 374.03V342.73C196.057 342.73 173.635 315.913 165.086 278.653C157.995 274.064 153.242 266.133 153.242 257.101V222.845C153.242 215.31 156.594 208.577 161.801 203.862V154.343C161.801 154.343 151.629 77.2825 255.99 77.2825C360.351 77.2825 350.179 154.343 350.179 154.343V203.862C355.395 208.577 358.738 215.31 358.738 222.845V257.101C358.738 268.616 351.009 278.305 340.518 281.542C334.674 299.713 326.24 317.034 315.092 332.78C312.281 336.751 309.653 340.112 307.354 342.73V374.822C307.354 386.637 314.029 397.447 324.598 402.721L406.392 443.614C411.3 446.067 415.734 449.168 419.82 452.617C474.981 406.614 510.618 337.833 511.942 260.376C514.376 119.015 401.746 2.45322 260.376 0.0381214Z" fill="#999999"/>
</g>
<defs>
<clipPath id="clip0_262_905">
<rect width="512" height="512" fill="white"/>
</clipPath>
</defs>
</svg>
