<svg width="24" height="25" viewBox="0 0 24 25" fill="none" xmlns="http://www.w3.org/2000/svg">
<path fill-rule="evenodd" clip-rule="evenodd" d="M19.5 14.0718L12 21.4998L4.5 14.0718M4.49995 14.0718C3.15125 12.7594 2.65368 10.8009 3.21243 9.00386C3.77118 7.20685 5.29161 5.87577 7.14672 5.55953C9.00182 5.24328 10.8774 5.99544 12 7.50583C13.1272 6.00661 14.9988 5.26444 16.8472 5.58364C18.6955 5.90285 20.2098 7.22972 20.7689 9.02018C21.3281 10.8106 20.8381 12.7634 19.5 14.0778" fill="white"/>
<path d="M19.8518 14.427C20.048 14.2327 20.0496 13.9161 19.8553 13.7199C19.6609 13.5237 19.3444 13.5222 19.1482 13.7165L19.8518 14.427ZM12 21.4998L11.6482 21.855C11.843 22.048 12.157 22.048 12.3518 21.855L12 21.4998ZM4.85184 13.7165C4.65564 13.5222 4.33906 13.5237 4.14475 13.7199C3.95043 13.9161 3.95195 14.2327 4.14816 14.427L4.85184 13.7165ZM4.15125 14.4302C4.34916 14.6227 4.66571 14.6184 4.85829 14.4205C5.05088 14.2226 5.04656 13.9061 4.84865 13.7135L4.15125 14.4302ZM12 7.50583L11.5987 7.80409C11.6927 7.93062 11.8409 8.00539 11.9986 8.00583C12.1562 8.00626 12.3048 7.93232 12.3996 7.80632L12 7.50583ZM19.1496 13.7211C18.9526 13.9146 18.9497 14.2312 19.1432 14.4282C19.3367 14.6252 19.6533 14.628 19.8503 14.4345L19.1496 13.7211ZM19.1482 13.7165L11.6482 21.1445L12.3518 21.855L19.8518 14.427L19.1482 13.7165ZM12.3518 21.1445L4.85184 13.7165L4.14816 14.427L11.6482 21.855L12.3518 21.1445ZM4.84865 13.7135C3.63482 12.5323 3.18701 10.7696 3.68989 9.15232L2.73498 8.8554C2.12036 10.8321 2.66768 12.9865 4.15125 14.4302L4.84865 13.7135ZM3.68989 9.15232C4.19276 7.53501 5.56114 6.33704 7.23074 6.05242L7.06269 5.06664C5.02207 5.41451 3.34961 6.87869 2.73498 8.8554L3.68989 9.15232ZM7.23074 6.05242C8.90034 5.7678 10.5883 6.44474 11.5987 7.80409L12.4013 7.20757C11.1664 5.54614 9.10331 4.71877 7.06269 5.06664L7.23074 6.05242ZM12.3996 7.80632C13.4141 6.45702 15.0985 5.78907 16.7621 6.07635L16.9322 5.09094C14.899 4.73981 12.8403 5.5562 11.6003 7.20534L12.3996 7.80632ZM16.7621 6.07635C18.4256 6.36363 19.7884 7.55782 20.2917 9.16923L21.2462 8.87112C20.6311 6.90162 18.9655 5.44206 16.9322 5.09094L16.7621 6.07635ZM20.2917 9.16923C20.7949 10.7806 20.354 12.5382 19.1496 13.7211L19.8503 14.4345C21.3223 12.9887 21.8613 10.8406 21.2462 8.87112L20.2917 9.16923Z" fill="#E57373"/>
</svg>
