<svg width="24" height="25" viewBox="0 0 24 25" fill="none" xmlns="http://www.w3.org/2000/svg">
<g clip-path="url(#clip0_2167_2824)">
<path d="M21 12.0627L12 3.06274L3 12.0627H5V19.0627C5 19.5932 5.21071 20.1019 5.58579 20.477C5.96086 20.852 6.46957 21.0627 7 21.0627H13" stroke="white" stroke-linecap="round" stroke-linejoin="round"/>
<path d="M9 21.0627V15.0627C9 14.5323 9.21071 14.0236 9.58579 13.6485C9.96086 13.2735 10.4696 13.0627 11 13.0627H13C13.39 13.0627 13.754 13.1747 14.061 13.3667" stroke="white" stroke-linecap="round" stroke-linejoin="round"/>
<path d="M19 21.5628L21.518 18.9828C21.83 18.6587 22.0042 18.2262 22.0042 17.7763C22.0042 17.3264 21.83 16.894 21.518 16.5698C21.3662 16.4119 21.184 16.2862 20.9825 16.2004C20.7809 16.1146 20.5641 16.0703 20.345 16.0703C20.1259 16.0703 19.9091 16.1146 19.7075 16.2004C19.506 16.2862 19.3238 16.4119 19.172 16.5698L19.004 16.7418L18.836 16.5698C18.6842 16.4119 18.502 16.2862 18.3005 16.2004C18.0989 16.1146 17.8821 16.0703 17.663 16.0703C17.4439 16.0703 17.2271 16.1146 17.0255 16.2004C16.824 16.2862 16.6418 16.4119 16.49 16.5698C16.1784 16.894 16.0043 17.3262 16.0043 17.7758C16.0043 18.2255 16.1784 18.6577 16.49 18.9818L19 21.5718V21.5628Z" stroke="white" stroke-linecap="round" stroke-linejoin="round"/>
</g>
<defs>
<clipPath id="clip0_2167_2824">
<rect width="24" height="24" fill="white" transform="translate(0 0.0627441)"/>
</clipPath>
</defs>
</svg>
