<svg width="29" height="29" viewBox="0 0 29 29" fill="none" xmlns="http://www.w3.org/2000/svg">
<g clip-path="url(#clip0_2183_7800)">
<path d="M18.9166 22.6667C18.9166 23.595 19.2854 24.4852 19.9418 25.1416C20.5981 25.798 21.4884 26.1667 22.4166 26.1667C23.3449 26.1667 24.2351 25.798 24.8915 25.1416C25.5479 24.4852 25.9166 23.595 25.9166 22.6667C25.9166 21.7385 25.5479 20.8483 24.8915 20.1919C24.2351 19.5355 23.3449 19.1667 22.4166 19.1667C21.4884 19.1667 20.5981 19.5355 19.9418 20.1919C19.2854 20.8483 18.9166 21.7385 18.9166 22.6667Z" stroke="#E17055" stroke-linecap="round" stroke-linejoin="round"/>
<path d="M20.0834 24.9999L24.75 20.3333" stroke="#E17055" stroke-linecap="round" stroke-linejoin="round"/>
<path d="M22.4167 14.5H24.75L14.25 4L3.75 14.5H6.08333V22.6667C6.08333 23.2855 6.32917 23.879 6.76675 24.3166C7.20434 24.7542 7.79783 25 8.41667 25H14.8333" stroke="#E17055" stroke-linecap="round" stroke-linejoin="round"/>
<path d="M10.75 25.0001V18.0001C10.75 17.3812 10.9958 16.7878 11.4334 16.3502C11.871 15.9126 12.4645 15.6667 13.0833 15.6667H15.4167C16.0933 15.6667 16.7035 15.9549 17.1293 16.4157" stroke="#E17055" stroke-linecap="round" stroke-linejoin="round"/>
</g>
<defs>
<clipPath id="clip0_2183_7800">
<rect width="28" height="28" fill="white" transform="translate(0.25 0.5)"/>
</clipPath>
</defs>
</svg>
