<svg width="24" height="24" viewBox="0 0 24 24" fill="none" xmlns="http://www.w3.org/2000/svg">
<path fill-rule="evenodd" clip-rule="evenodd" d="M19.5 13.5718L12 20.9998L4.5 13.5718M4.49995 13.5718C3.15125 12.2594 2.65368 10.3009 3.21243 8.50386C3.77118 6.70685 5.29161 5.37577 7.14672 5.05953C9.00182 4.74328 10.8774 5.49544 12 7.00583C13.1272 5.50661 14.9988 4.76444 16.8472 5.08364C18.6955 5.40285 20.2098 6.72972 20.7689 8.52018C21.3281 10.3106 20.8381 12.2634 19.5 13.5778" fill="#E57373"/>
<path d="M19.8518 13.927C20.048 13.7327 20.0496 13.4161 19.8553 13.2199C19.6609 13.0237 19.3444 13.0222 19.1482 13.2165L19.8518 13.927ZM12 20.9998L11.6482 21.355C11.843 21.548 12.157 21.548 12.3518 21.355L12 20.9998ZM4.85184 13.2165C4.65564 13.0222 4.33906 13.0237 4.14475 13.2199C3.95043 13.4161 3.95195 13.7327 4.14816 13.927L4.85184 13.2165ZM4.15125 13.9302C4.34916 14.1227 4.66571 14.1184 4.85829 13.9205C5.05088 13.7226 5.04656 13.4061 4.84865 13.2135L4.15125 13.9302ZM12 7.00583L11.5987 7.30409C11.6927 7.43062 11.8409 7.50539 11.9986 7.50583C12.1562 7.50626 12.3048 7.43232 12.3996 7.30632L12 7.00583ZM19.1496 13.2211C18.9526 13.4146 18.9497 13.7312 19.1432 13.9282C19.3367 14.1252 19.6533 14.128 19.8503 13.9345L19.1496 13.2211ZM19.1482 13.2165L11.6482 20.6445L12.3518 21.355L19.8518 13.927L19.1482 13.2165ZM12.3518 20.6445L4.85184 13.2165L4.14816 13.927L11.6482 21.355L12.3518 20.6445ZM4.84865 13.2135C3.63482 12.0323 3.18701 10.2696 3.68989 8.65232L2.73498 8.3554C2.12036 10.3321 2.66768 12.4865 4.15125 13.9302L4.84865 13.2135ZM3.68989 8.65232C4.19276 7.03501 5.56114 5.83704 7.23074 5.55242L7.06269 4.56664C5.02207 4.91451 3.34961 6.37869 2.73498 8.3554L3.68989 8.65232ZM7.23074 5.55242C8.90034 5.2678 10.5883 5.94474 11.5987 7.30409L12.4013 6.70757C11.1664 5.04614 9.10331 4.21877 7.06269 4.56664L7.23074 5.55242ZM12.3996 7.30632C13.4141 5.95702 15.0985 5.28907 16.7621 5.57635L16.9322 4.59094C14.899 4.23981 12.8403 5.0562 11.6003 6.70534L12.3996 7.30632ZM16.7621 5.57635C18.4256 5.86363 19.7884 7.05782 20.2917 8.66923L21.2462 8.37112C20.6311 6.40162 18.9655 4.94206 16.9322 4.59094L16.7621 5.57635ZM20.2917 8.66923C20.7949 10.2806 20.354 12.0382 19.1496 13.2211L19.8503 13.9345C21.3223 12.4887 21.8613 10.3406 21.2462 8.37112L20.2917 8.66923Z" fill="white"/>
</svg>
