<svg width="20" height="20" viewBox="0 0 20 20" fill="none" xmlns="http://www.w3.org/2000/svg">
<g clip-path="url(#clip0_2180_6678)">
<path d="M3.33325 4.99992C3.33325 4.55789 3.50885 4.13397 3.82141 3.82141C4.13397 3.50885 4.55789 3.33325 4.99992 3.33325H14.9999C15.4419 3.33325 15.8659 3.50885 16.1784 3.82141C16.491 4.13397 16.6666 4.55789 16.6666 4.99992V14.9999C16.6666 15.4419 16.491 15.8659 16.1784 16.1784C15.8659 16.491 15.4419 16.6666 14.9999 16.6666H4.99992C4.55789 16.6666 4.13397 16.491 3.82141 16.1784C3.50885 15.8659 3.33325 15.4419 3.33325 14.9999V4.99992Z" stroke="#898989" stroke-linecap="round" stroke-linejoin="round"/>
<path d="M3.33325 7.5H9.99992" stroke="#898989" stroke-linecap="round" stroke-linejoin="round"/>
<path d="M10 12.5H16.6667" stroke="#898989" stroke-linecap="round" stroke-linejoin="round"/>
<path d="M10 3.33325V16.6666" stroke="#898989" stroke-linecap="round" stroke-linejoin="round"/>
</g>
<defs>
<clipPath id="clip0_2180_6678">
<rect width="20" height="20" fill="white"/>
</clipPath>
</defs>
</svg>
