<svg width="25" height="24" viewBox="0 0 25 24" fill="none" xmlns="http://www.w3.org/2000/svg">
<path d="M14.5 8V6C14.5 4.89543 13.6046 4 12.5 4H5.5C4.39543 4 3.5 4.89543 3.5 6V18C3.5 19.1046 4.39543 20 5.5 20H12.5C13.6046 20 14.5 19.1046 14.5 18V16" stroke="black" stroke-linecap="round" stroke-linejoin="round"/>
<path d="M7.5 11.5C7.22386 11.5 7 11.7239 7 12C7 12.2761 7.22386 12.5 7.5 12.5V11.5ZM21.5 12V12.5C21.7022 12.5 21.8845 12.3782 21.9619 12.1913C22.0393 12.0045 21.9966 11.7894 21.8536 11.6464L21.5 12ZM18.8536 8.64645C18.6583 8.45118 18.3417 8.45118 18.1464 8.64645C17.9512 8.84171 17.9512 9.15829 18.1464 9.35355L18.8536 8.64645ZM18.1464 14.6464C17.9512 14.8417 17.9512 15.1583 18.1464 15.3536C18.3417 15.5488 18.6583 15.5488 18.8536 15.3536L18.1464 14.6464ZM21.8536 12.3536C22.0488 12.1583 22.0488 11.8417 21.8536 11.6464C21.6583 11.4512 21.3417 11.4512 21.1464 11.6464L21.8536 12.3536ZM7.5 12.5H21.5V11.5H7.5V12.5ZM21.8536 11.6464L18.8536 8.64645L18.1464 9.35355L21.1464 12.3536L21.8536 11.6464ZM18.8536 15.3536L21.8536 12.3536L21.1464 11.6464L18.1464 14.6464L18.8536 15.3536Z" fill="black"/>
</svg>
