<svg width="20" height="20" viewBox="0 0 20 20" fill="none" xmlns="http://www.w3.org/2000/svg">
<g clip-path="url(#clip0_2183_7398)">
<path d="M10 14.9999H4.16667C3.72464 14.9999 3.30072 14.8243 2.98816 14.5118C2.67559 14.1992 2.5 13.7753 2.5 13.3333V4.99992C2.5 4.55789 2.67559 4.13397 2.98816 3.82141C3.30072 3.50885 3.72464 3.33325 4.16667 3.33325H15.8333C16.2754 3.33325 16.6993 3.50885 17.0118 3.82141C17.3244 4.13397 17.5 4.55789 17.5 4.99992V11.2499" stroke="#006CB5" stroke-linecap="round" stroke-linejoin="round"/>
<path d="M2.5 5L10 10L17.5 5" stroke="#006CB5" stroke-linecap="round" stroke-linejoin="round"/>
<path d="M12.5 15H17.5" stroke="#006CB5" stroke-linecap="round" stroke-linejoin="round"/>
<path d="M15 12.5L17.5 15L15 17.5" stroke="#006CB5" stroke-linecap="round" stroke-linejoin="round"/>
</g>
<defs>
<clipPath id="clip0_2183_7398">
<rect width="20" height="20" fill="white"/>
</clipPath>
</defs>
</svg>
