<svg width="24" height="25" viewBox="0 0 24 25" fill="none" xmlns="http://www.w3.org/2000/svg">
<g clip-path="url(#clip0_2167_2789)">
<path d="M18.364 4.6988C20.0163 6.35093 20.9613 8.58092 20.9992 10.9172C21.0371 13.2535 20.1649 15.513 18.567 17.2178L18.364 17.4278L14.121 21.6698C13.5826 22.2078 12.8599 22.5211 12.0991 22.5462C11.3384 22.5712 10.5966 22.3062 10.024 21.8048L9.87999 21.6698L5.63599 17.4268C3.94816 15.739 2.99994 13.4498 2.99994 11.0628C2.99994 8.67584 3.94816 6.38664 5.63599 4.6988C7.32383 3.01096 9.61303 2.06274 12 2.06274C14.387 2.06274 16.6762 3.01096 18.364 4.6988ZM12 8.0628C11.606 8.0628 11.2159 8.1404 10.8519 8.29116C10.488 8.44192 10.1572 8.6629 9.87867 8.94148C9.6001 9.22005 9.37912 9.55077 9.22836 9.91475C9.07759 10.2787 8.99999 10.6688 8.99999 11.0628C8.99999 11.4568 9.07759 11.8469 9.22836 12.2108C9.37912 12.5748 9.6001 12.9055 9.87867 13.1841C10.1572 13.4627 10.488 13.6837 10.8519 13.8344C11.2159 13.9852 11.606 14.0628 12 14.0628C12.7956 14.0628 13.5587 13.7467 14.1213 13.1841C14.6839 12.6215 15 11.8584 15 11.0628C15 10.2671 14.6839 9.50409 14.1213 8.94148C13.5587 8.37887 12.7956 8.0628 12 8.0628Z" stroke="white" stroke-linecap="round" stroke-linejoin="round"/>
</g>
<defs>
<clipPath id="clip0_2167_2789">
<rect width="24" height="24" fill="white" transform="translate(0 0.0627441)"/>
</clipPath>
</defs>
</svg>
