<svg width="71" height="70" viewBox="0 0 71 70" fill="none" xmlns="http://www.w3.org/2000/svg">
<g clip-path="url(#clip0_2324_2816)">
<path d="M9.25 35C9.25 38.4472 9.92898 41.8606 11.2482 45.0454C12.5673 48.2302 14.5009 51.124 16.9384 53.5616C19.376 55.9991 22.2698 57.9327 25.4546 59.2518C28.6394 60.571 32.0528 61.25 35.5 61.25C38.9472 61.25 42.3606 60.571 45.5454 59.2518C48.7302 57.9327 51.624 55.9991 54.0616 53.5616C56.4991 51.124 58.4327 48.2302 59.7518 45.0454C61.071 41.8606 61.75 38.4472 61.75 35C61.75 31.5528 61.071 28.1394 59.7518 24.9546C58.4327 21.7698 56.4991 18.876 54.0616 16.4384C51.624 14.0009 48.7302 12.0673 45.5454 10.7482C42.3606 9.42898 38.9472 8.75 35.5 8.75C32.0528 8.75 28.6394 9.42898 25.4546 10.7482C22.2698 12.0673 19.376 14.0009 16.9384 16.4384C14.5009 18.876 12.5673 21.7698 11.2482 24.9546C9.92898 28.1394 9.25 31.5528 9.25 35Z" stroke="black" stroke-linecap="round" stroke-linejoin="round"/>
<path d="M29.6667 43.75V26.25H35.5001C37.0472 26.25 38.5309 26.8646 39.6249 27.9585C40.7188 29.0525 41.3334 30.5362 41.3334 32.0833C41.3334 33.6304 40.7188 35.1142 39.6249 36.2081C38.5309 37.3021 37.0472 37.9167 35.5001 37.9167H29.6667" stroke="black" stroke-linecap="round" stroke-linejoin="round"/>
<path d="M41.3333 43.75L35.5 37.9167" stroke="black" stroke-linecap="round" stroke-linejoin="round"/>
</g>
<defs>
<clipPath id="clip0_2324_2816">
<rect width="70" height="70" fill="white" transform="translate(0.5)"/>
</clipPath>
</defs>
</svg>
