<svg width="24" height="25" viewBox="0 0 24 25" fill="none" xmlns="http://www.w3.org/2000/svg">
<g clip-path="url(#clip0_2175_5735)">
<path d="M3 12.0312C3 12.8269 3.31607 13.59 3.87868 14.1526C4.44129 14.7152 5.20435 15.0312 6 15.0312C6.79565 15.0312 7.55871 14.7152 8.12132 14.1526C8.68393 13.59 9 12.8269 9 12.0312C9 11.2356 8.68393 10.4725 8.12132 9.90993C7.55871 9.34732 6.79565 9.03125 6 9.03125C5.20435 9.03125 4.44129 9.34732 3.87868 9.90993C3.31607 10.4725 3 11.2356 3 12.0312Z" stroke="#006CB5" stroke-linecap="round" stroke-linejoin="round"/>
<path d="M15 6.03125C15 6.8269 15.3161 7.58996 15.8787 8.15257C16.4413 8.71518 17.2044 9.03125 18 9.03125C18.7956 9.03125 19.5587 8.71518 20.1213 8.15257C20.6839 7.58996 21 6.8269 21 6.03125C21 5.2356 20.6839 4.47254 20.1213 3.90993C19.5587 3.34732 18.7956 3.03125 18 3.03125C17.2044 3.03125 16.4413 3.34732 15.8787 3.90993C15.3161 4.47254 15 5.2356 15 6.03125Z" stroke="#006CB5" stroke-linecap="round" stroke-linejoin="round"/>
<path d="M15 18.0312C15 18.8269 15.3161 19.59 15.8787 20.1526C16.4413 20.7152 17.2044 21.0312 18 21.0312C18.7956 21.0312 19.5587 20.7152 20.1213 20.1526C20.6839 19.59 21 18.8269 21 18.0312C21 17.2356 20.6839 16.4725 20.1213 15.9099C19.5587 15.3473 18.7956 15.0312 18 15.0312C17.2044 15.0312 16.4413 15.3473 15.8787 15.9099C15.3161 16.4725 15 17.2356 15 18.0312Z" stroke="#006CB5" stroke-linecap="round" stroke-linejoin="round"/>
<path d="M8.70001 10.7313L15.3 7.3313" stroke="#006CB5" stroke-linecap="round" stroke-linejoin="round"/>
<path d="M8.70001 13.3313L15.3 16.7313" stroke="#006CB5" stroke-linecap="round" stroke-linejoin="round"/>
</g>
<defs>
<clipPath id="clip0_2175_5735">
<rect width="24" height="24" fill="white" transform="translate(0 0.03125)"/>
</clipPath>
</defs>
</svg>
