<svg width="33" height="32" viewBox="0 0 33 32" fill="none" xmlns="http://www.w3.org/2000/svg">
<path d="M3.35742 29.2832L5.18599 22.3888C4.05627 20.3732 3.46251 18.0805 3.46251 15.7389C3.46777 8.39896 9.24248 2.43359 16.3361 2.43359C19.7778 2.43359 23.0146 3.81899 25.4421 6.33444C27.875 8.84989 29.2149 12.1911 29.2096 15.7497C29.2044 23.0842 23.4297 29.055 16.3361 29.055H16.3308C14.1765 29.055 12.0589 28.4954 10.1778 27.436L3.35742 29.2832Z" fill="url(#paint0_linear_2114_2645)"/>
<path d="M2.88965 29.7659L4.78127 22.6215C3.61477 20.5353 3.00525 18.1611 3.00525 15.7326C3.00525 8.1319 8.99014 1.94922 16.3412 1.94922C19.909 1.94922 23.2562 3.38895 25.7731 5.99132C28.29 8.59913 29.6772 12.0599 29.6772 15.7434C29.6719 23.3441 23.6923 29.5268 16.3412 29.5268H16.336C14.1028 29.5268 11.9117 28.9455 9.96223 27.848L2.88965 29.7659ZM10.288 25.3543L10.6926 25.6042C12.3951 26.6474 14.3445 27.2015 16.336 27.2015H16.3412C22.4522 27.2015 27.423 22.062 27.423 15.7434C27.423 12.6847 26.2722 9.80525 24.1809 7.6375C22.0896 5.46976 19.3048 4.27995 16.3465 4.27995C10.2302 4.27995 5.25944 9.41951 5.25944 15.738C5.25944 17.9003 5.84269 20.0083 6.95139 21.8338L7.21412 22.2684L6.0949 26.4952L10.288 25.3543Z" fill="url(#paint1_linear_2114_2645)"/>
<path fill-rule="evenodd" clip-rule="evenodd" d="M13.0046 9.9677C12.7524 9.3918 12.4896 9.38094 12.2532 9.37007C12.0588 9.35921 11.8381 9.36464 11.6121 9.36464C11.3914 9.36464 11.0289 9.45157 10.7241 9.79384C10.4194 10.1361 9.55762 10.9728 9.55762 12.6679C9.55762 14.3629 10.7504 16.0037 10.9185 16.2319C11.0867 16.4601 13.2253 20.0512 16.6092 21.4312C19.4256 22.5775 19.9983 22.3494 20.6079 22.295C21.2174 22.2407 22.5783 21.4638 22.8568 20.6597C23.1353 19.8556 23.1353 19.1657 23.0512 19.0244C22.9671 18.8831 22.7465 18.7962 22.4102 18.6224C22.0791 18.4485 20.4397 17.6173 20.135 17.5032C19.8302 17.3891 19.6095 17.3293 19.3836 17.677C19.1629 18.0193 18.5218 18.7962 18.3274 19.0244C18.133 19.2526 17.9386 19.2852 17.6075 19.1113C17.2765 18.9375 16.1993 18.5735 14.9277 17.4C13.9346 16.4872 13.2673 15.3572 13.0729 15.0149C12.8785 14.6726 13.0519 14.4825 13.22 14.314C13.3671 14.1619 13.551 13.912 13.7192 13.711C13.8873 13.51 13.9399 13.3687 14.0502 13.1351C14.1606 12.9069 14.108 12.7059 14.024 12.532C13.9504 12.3528 13.3041 10.6522 13.0046 9.9677Z" fill="white"/>
<defs>
<linearGradient id="paint0_linear_2114_2645" x1="16.2834" y1="29.2854" x2="16.2834" y2="2.43175" gradientUnits="userSpaceOnUse">
<stop stop-color="#20B038"/>
<stop offset="1" stop-color="#60D66A"/>
</linearGradient>
<linearGradient id="paint1_linear_2114_2645" x1="16.2834" y1="29.7659" x2="16.2834" y2="1.94922" gradientUnits="userSpaceOnUse">
<stop stop-color="#F9F9F9"/>
<stop offset="1" stop-color="white"/>
</linearGradient>
</defs>
</svg>
