<svg width="24" height="25" viewBox="0 0 24 25" fill="none" xmlns="http://www.w3.org/2000/svg">
<g clip-path="url(#clip0_2365_2844)">
<path d="M10 13.5C10 14.0304 10.2107 14.5391 10.5858 14.9142C10.9609 15.2893 11.4696 15.5 12 15.5C12.5304 15.5 13.0391 15.2893 13.4142 14.9142C13.7893 14.5391 14 14.0304 14 13.5C14 12.9696 13.7893 12.4609 13.4142 12.0858C13.0391 11.7107 12.5304 11.5 12 11.5C11.4696 11.5 10.9609 11.7107 10.5858 12.0858C10.2107 12.4609 10 12.9696 10 13.5Z" stroke="#006CB5" stroke-linecap="round" stroke-linejoin="round"/>
<path d="M13.45 12.05L15.5 10" stroke="#006CB5" stroke-linecap="round" stroke-linejoin="round"/>
<path d="M6.4 20.5002C4.93815 19.3382 3.87391 17.7504 3.35478 15.9566C2.83564 14.1629 2.88732 12.252 3.50265 10.489C4.11797 8.72588 5.26647 7.19786 6.78899 6.11665C8.3115 5.03544 10.1326 4.45459 12 4.45459C13.8674 4.45459 15.6885 5.03544 17.211 6.11665C18.7335 7.19786 19.882 8.72588 20.4974 10.489C21.1127 12.252 21.1644 14.1629 20.6452 15.9566C20.1261 17.7504 19.0619 19.3382 17.6 20.5002H6.4Z" stroke="#006CB5" stroke-linecap="round" stroke-linejoin="round"/>
</g>
<defs>
<clipPath id="clip0_2365_2844">
<rect width="24" height="24" fill="white" transform="translate(0 0.5)"/>
</clipPath>
</defs>
</svg>
