<svg width="25" height="25" viewBox="0 0 25 25" fill="none" xmlns="http://www.w3.org/2000/svg">
<g clip-path="url(#clip0_2365_2851)">
<path d="M5.25 7.5C5.25 8.56087 5.67143 9.57828 6.42157 10.3284C7.17172 11.0786 8.18913 11.5 9.25 11.5C10.3109 11.5 11.3283 11.0786 12.0784 10.3284C12.8286 9.57828 13.25 8.56087 13.25 7.5C13.25 6.43913 12.8286 5.42172 12.0784 4.67157C11.3283 3.92143 10.3109 3.5 9.25 3.5C8.18913 3.5 7.17172 3.92143 6.42157 4.67157C5.67143 5.42172 5.25 6.43913 5.25 7.5Z" stroke="#333333" stroke-linecap="round" stroke-linejoin="round"/>
<path d="M3.25 21.5V19.5C3.25 18.4391 3.67143 17.4217 4.42157 16.6716C5.17172 15.9214 6.18913 15.5 7.25 15.5H11.25C12.3109 15.5 13.3283 15.9214 14.0784 16.6716C14.8286 17.4217 15.25 18.4391 15.25 19.5V21.5" stroke="#333333" stroke-linecap="round" stroke-linejoin="round"/>
<path d="M16.25 3.62988C17.1104 3.85018 17.873 4.35058 18.4176 5.05219C18.9622 5.7538 19.2578 6.61671 19.2578 7.50488C19.2578 8.39305 18.9622 9.25596 18.4176 9.95757C17.873 10.6592 17.1104 11.1596 16.25 11.3799" stroke="#333333" stroke-linecap="round" stroke-linejoin="round"/>
<path d="M21.25 21.4999V19.4999C21.2449 18.6171 20.9479 17.7607 20.4053 17.0643C19.8626 16.3679 19.1048 15.8706 18.25 15.6499" stroke="#333333" stroke-linecap="round" stroke-linejoin="round"/>
</g>
<defs>
<clipPath id="clip0_2365_2851">
<rect width="24" height="24" fill="white" transform="translate(0.25 0.5)"/>
</clipPath>
</defs>
</svg>
