<svg width="126" height="20" viewBox="0 0 126 20" fill="none" xmlns="http://www.w3.org/2000/svg">
<path d="M112.079 0.889164C112.072 0.730002 112.125 0.574159 112.226 0.454362C112.278 0.397924 112.342 0.35388 112.412 0.325239C112.483 0.296599 112.558 0.284037 112.633 0.288413H125.145C125.224 0.283388 125.303 0.295989 125.377 0.325366C125.451 0.354744 125.518 0.400214 125.573 0.45871C125.678 0.585197 125.733 0.749059 125.724 0.915977V4.1567C125.721 4.31121 125.668 4.46021 125.573 4.57918C125.521 4.64734 125.453 4.70146 125.376 4.73701C125.299 4.77256 125.216 4.78852 125.132 4.78354H116.967V8.02426H123.266C123.408 8.01861 123.548 8.05999 123.665 8.14238C123.77 8.22064 123.82 8.35109 123.82 8.5337V11.3693C123.816 11.5007 123.767 11.6261 123.68 11.7222C123.63 11.7805 123.568 11.8261 123.498 11.8556C123.428 11.8851 123.352 11.8977 123.277 11.8925H116.967V15.2115H125.433C125.81 15.2115 126 15.4118 126 15.8123V19.1059C126 19.1502 125.99 19.1938 125.973 19.2342C125.955 19.2746 125.93 19.3109 125.899 19.3407C125.865 19.5852 125.693 19.7071 125.382 19.7067H112.635C112.489 19.7136 112.345 19.664 112.232 19.5675C112.131 19.4755 112.081 19.3364 112.081 19.145L112.079 0.889164ZM98.1755 0.863075C98.1733 0.712865 98.2273 0.567634 98.3264 0.457985C98.3802 0.399799 98.4455 0.354434 98.5179 0.32503C98.5903 0.295626 98.668 0.282884 98.7456 0.287688H102.488C102.632 0.288209 102.771 0.344234 102.878 0.444941C102.937 0.496794 102.983 0.560888 103.016 0.632975C103.049 0.705062 103.066 0.783495 103.067 0.863075V15.0804H109.997C110.141 15.0781 110.281 15.1342 110.387 15.2369C110.443 15.2925 110.486 15.3597 110.514 15.4341C110.542 15.5085 110.555 15.5883 110.551 15.6681V19.1052C110.552 19.2531 110.502 19.3967 110.411 19.5103C110.36 19.5719 110.297 19.6213 110.226 19.655C110.155 19.6888 110.078 19.7062 109.999 19.7059H98.7309C98.3615 19.7059 98.1768 19.5144 98.1768 19.1313L98.1755 0.863075ZM92.3568 6.62782C92.3566 6.36071 92.3126 6.09557 92.2268 5.84373C92.1409 5.58716 92.0099 5.34933 91.8404 5.14225C91.6703 4.93619 91.4635 4.76616 91.2312 4.6415C90.9792 4.50783 90.6995 4.44039 90.4165 4.44512H87.7454V8.8098H90.4165C90.7002 8.81356 90.9807 8.74802 91.2354 8.61849C91.4698 8.50078 91.6786 8.33456 91.8488 8.13006C92.0149 7.92553 92.1431 7.6909 92.2268 7.438C92.314 7.1775 92.3579 6.90356 92.3568 6.62782ZM82.8546 0.891337C82.8472 0.733383 82.897 0.578261 82.9944 0.456536C83.048 0.398407 83.1135 0.353367 83.186 0.324668C83.2585 0.295969 83.3362 0.284329 83.4136 0.290587H91.4729C92.0278 0.286711 92.5801 0.370526 93.1107 0.539148C93.6098 0.698862 94.0849 0.930352 94.522 1.22686C94.953 1.52006 95.3442 1.87175 95.6853 2.27256C96.0257 2.67508 96.3189 3.11805 96.5587 3.59218C96.7992 4.06248 96.9839 4.56132 97.1086 5.07775C97.2345 5.59321 97.2981 6.1229 97.2979 6.65463C97.298 7.44205 97.16 8.22293 96.8906 8.95908C96.6245 9.69603 96.2286 10.3752 95.723 10.9621C95.2113 11.5524 94.5945 12.0347 93.9065 12.3824C93.1763 12.7505 92.3749 12.9411 91.5631 12.9397H87.7454V19.1472C87.7454 19.5216 87.5524 19.7088 87.1662 19.7088H83.4115C83.2651 19.7157 83.1215 19.6661 83.0083 19.5697C82.9077 19.4777 82.8574 19.3385 82.8574 19.1472L82.8546 0.891337ZM62.1483 10.0142C62.145 9.11674 62.2594 8.22299 62.4886 7.35756C62.7103 6.51737 63.0393 5.71166 63.4667 4.96181C63.8852 4.22093 64.3917 3.53752 64.9745 2.92766C65.555 2.3214 66.2099 1.79706 66.9224 1.36817C67.6471 0.933289 68.4218 0.59509 69.2281 0.361604C70.9072 -0.120535 72.6809 -0.120535 74.36 0.361604C75.1677 0.594804 75.9439 0.933009 76.6698 1.36817C78.1059 2.23229 79.2992 3.4709 80.1311 4.96108C80.5506 5.71411 80.8766 6.51907 81.1016 7.35684C81.5665 9.09684 81.5665 10.9352 81.1016 12.6752C80.8772 13.509 80.5511 14.3098 80.1311 15.0579C79.7148 15.7936 79.2079 16.4701 78.6234 17.0703C78.036 17.6732 77.3789 18.1982 76.667 18.6334C75.1878 19.5284 73.5059 20 71.7933 20C70.0808 20 68.3989 19.5284 66.9196 18.6334C65.4954 17.763 64.3066 16.533 63.4639 15.0579C63.0359 14.313 62.7069 13.5115 62.4858 12.6752C62.2574 11.8082 62.1438 10.913 62.1483 10.0142ZM67.0391 9.99681C67.0325 10.6887 67.151 11.3757 67.3885 12.0223C67.611 12.6298 67.9462 13.1862 68.375 13.66C68.8001 14.127 69.3114 14.5003 69.8786 14.7579C70.4849 15.0224 71.136 15.1586 71.7937 15.1586C72.4514 15.1586 73.1025 15.0224 73.7088 14.7579C74.2798 14.5009 74.7947 14.1264 75.2222 13.6571C75.651 13.1833 75.9861 12.6269 76.2087 12.0194C76.6791 10.7146 76.6791 9.27754 76.2087 7.97281C75.9861 7.36143 75.651 6.80077 75.2222 6.32201C74.7831 5.83675 74.2527 5.44999 73.6639 5.18559C73.0751 4.9212 72.4402 4.7848 71.7986 4.7848C71.1569 4.7848 70.5221 4.9212 69.9333 5.18559C69.3444 5.44999 68.8141 5.83675 68.375 6.32201C67.9461 6.80077 67.6111 7.36143 67.3885 7.97281C67.151 8.61895 67.0318 9.30535 67.037 9.99681H67.0391ZM47.4241 0.889164C47.417 0.730002 47.4696 0.574159 47.5709 0.454362C47.6232 0.397846 47.6867 0.35375 47.757 0.325104C47.8273 0.296458 47.9028 0.283941 47.9782 0.288413H60.4889C60.5679 0.283244 60.647 0.295779 60.721 0.325165C60.7949 0.354551 60.8618 0.400098 60.9172 0.45871C61.0239 0.584304 61.0793 0.748044 61.0716 0.915252V4.15597C61.0691 4.31062 61.0156 4.45971 60.92 4.57846C60.8677 4.64665 60.8003 4.7008 60.7236 4.73636C60.6469 4.77193 60.563 4.78786 60.4791 4.78281H52.3122V8.02353H58.6122C58.754 8.01789 58.8937 8.05927 59.0112 8.14166C59.116 8.21992 59.1663 8.35036 59.1663 8.53298V11.3686C59.1628 11.5 59.1131 11.6255 59.0266 11.7215C58.9763 11.7797 58.914 11.8253 58.8443 11.8548C58.7746 11.8843 58.6993 11.897 58.6241 11.8918H52.3122V15.2108H60.7789C61.1571 15.2108 61.346 15.4111 61.3455 15.8116V19.1052C61.345 19.1494 61.3359 19.193 61.3186 19.2333C61.3013 19.2737 61.2762 19.31 61.2449 19.34C61.2114 19.5844 61.0393 19.7064 60.7286 19.7059H47.9782C47.8319 19.7128 47.6882 19.6633 47.5751 19.5668C47.4745 19.4748 47.4241 19.3356 47.4241 19.1443V0.889164ZM41.1534 6.62782C41.1532 6.36071 41.1093 6.09557 41.0235 5.84373C40.9375 5.58716 40.8065 5.34933 40.6371 5.14225C40.467 4.93619 40.2601 4.76616 40.0278 4.6415C39.7759 4.50783 39.4961 4.44039 39.2132 4.44512H36.5421V8.8098H39.2132C39.4968 8.81356 39.7773 8.74802 40.032 8.61849C40.2664 8.50059 40.4751 8.3344 40.6455 8.13006C40.8116 7.92553 40.9397 7.6909 41.0235 7.438C41.1106 7.1775 41.1546 6.90356 41.1534 6.62782ZM31.6569 0.889164C31.6494 0.731209 31.6993 0.576087 31.7966 0.454362C31.8499 0.396725 31.9148 0.351973 31.9866 0.323291C32.0585 0.294609 32.1355 0.2827 32.2123 0.288413H40.2675C40.8224 0.284537 41.3746 0.368352 41.9052 0.536974C42.4043 0.696689 42.8794 0.928178 43.3166 1.22469C43.7476 1.51789 44.1388 1.86958 44.4799 2.27038C44.8193 2.67298 45.1117 3.11567 45.3511 3.58928C45.5917 4.05958 45.7763 4.55842 45.901 5.07486C46.0269 5.59031 46.0905 6.12 46.0904 6.65174C46.0905 7.43916 45.9525 8.22003 45.683 8.95619C45.4169 9.69313 45.021 10.3723 44.5155 10.9592C44.0038 11.5495 43.387 12.0318 42.6989 12.3795C41.9688 12.7476 41.1673 12.9382 40.3555 12.9368H36.5421V19.1443C36.5421 19.5187 36.349 19.7059 35.9629 19.7059H32.2081C32.0618 19.7128 31.9182 19.6633 31.805 19.5668C31.7044 19.4748 31.6541 19.3356 31.6541 19.1443L31.6569 0.889164ZM16.3025 0.889164C16.2953 0.730002 16.3479 0.574159 16.4492 0.454362C16.5015 0.397846 16.565 0.35375 16.6354 0.325104C16.7057 0.296458 16.7811 0.283941 16.8565 0.288413H29.3645C29.4435 0.283244 29.5226 0.295779 29.5965 0.325165C29.6704 0.354551 29.7373 0.400098 29.7928 0.45871C29.8986 0.584932 29.953 0.748918 29.9444 0.915977V4.1567C29.9418 4.31135 29.8883 4.46043 29.7928 4.57918C29.7404 4.64737 29.6731 4.70153 29.5963 4.73709C29.5196 4.77265 29.4358 4.78858 29.3519 4.78354H21.1877V8.02426H27.4871C27.6288 8.01841 27.7686 8.0598 27.886 8.14238C27.9915 8.22064 28.0418 8.35109 28.0418 8.5337V11.3693C28.0384 11.5007 27.9887 11.6262 27.9021 11.7222C27.8519 11.7805 27.7896 11.826 27.7198 11.8555C27.6501 11.8851 27.5748 11.8977 27.4997 11.8925H21.1877V15.2115H29.6544C30.0326 15.2115 30.2215 15.4118 30.2211 15.8123V19.1059C30.2206 19.1501 30.2114 19.1937 30.1941 19.2341C30.1768 19.2744 30.1517 19.3107 30.1204 19.3407C30.0869 19.5852 29.9148 19.7071 29.6041 19.7067H16.8538C16.7074 19.7136 16.5638 19.664 16.4506 19.5675C16.35 19.4755 16.2997 19.3364 16.2997 19.145L16.3025 0.889164ZM9.85499 6.70391C9.85342 6.43604 9.80611 6.17057 9.71526 5.91982C9.62363 5.66065 9.49324 5.41806 9.32888 5.20095C9.16016 4.98259 8.95556 4.79687 8.72452 4.65237C8.4874 4.5016 8.22296 4.40293 7.94758 4.3625C7.71631 4.34511 7.49343 4.32772 7.29221 4.31468C7.09098 4.30163 6.86391 4.29728 6.62007 4.29728H4.88872V9.09315H7.19439C7.34531 9.09315 7.47945 9.0888 7.59753 9.0801C7.71561 9.07141 7.84068 9.05836 7.98391 9.04097C8.26271 9.01058 8.53197 8.9184 8.77343 8.77067C9.00181 8.63293 9.20268 8.45115 9.36521 8.23514C9.52339 8.01806 9.64548 7.77509 9.72644 7.51627C9.80973 7.25414 9.85218 6.97991 9.8522 6.70391H9.85499ZM0.00349339 0.889164C-0.00430545 0.73116 0.0455888 0.575912 0.143231 0.454362C0.196487 0.396684 0.261358 0.351905 0.333217 0.32322C0.405077 0.294535 0.482154 0.28265 0.558951 0.288413H8.69377C9.52912 0.283854 10.3565 0.456478 11.1252 0.795681C11.8613 1.11606 12.5324 1.5778 13.1032 2.15661C13.6683 2.73506 14.1202 3.42135 14.4342 4.17771C14.7582 4.9554 14.9228 5.79443 14.9177 6.64159C14.9208 7.21503 14.8429 7.78586 14.6864 8.33587C14.5336 8.8642 14.3146 9.36948 14.0352 9.83883C13.76 10.3033 13.4284 10.7293 13.0487 11.1063C12.6692 11.4831 12.2469 11.8107 11.7911 12.0817L15.0414 18.4109C15.1 18.5327 15.1755 18.6764 15.2677 18.8421C15.3495 18.9709 15.3977 19.1195 15.4075 19.2733C15.4114 19.3333 15.4016 19.3933 15.3789 19.4486C15.3562 19.5039 15.3212 19.5528 15.2768 19.5914C15.1729 19.6712 15.0455 19.7112 14.9163 19.7045H10.5844C10.4467 19.7056 10.3124 19.6598 10.2022 19.574C10.0894 19.4882 10.0105 19.3628 9.98006 19.2211L6.9233 13.2506H4.88872V19.1443C4.88872 19.5187 4.69542 19.7059 4.30881 19.7059H0.554758C0.408395 19.713 0.264725 19.6634 0.151615 19.5668C0.0503057 19.4748 0 19.3356 0 19.1443L0.00349339 0.889164Z" fill="#006CB5"/>
</svg>
